<svg width="2965" height="627" viewBox="0 0 2965 627" fill="none" xmlns="http://www.w3.org/2000/svg">
<path d="M997.994 395.094C979.912 410.695 959.659 422.667 937.237 431.012C914.815 439.356 891.579 443.528 867.529 443.528C849.085 443.528 831.274 441.079 814.096 436.182C797.098 431.465 781.095 424.753 766.087 416.046C751.259 407.157 737.698 396.545 725.401 384.21C713.105 371.875 702.527 358.269 693.667 343.394C684.987 328.338 678.206 312.284 673.324 295.232C668.623 277.999 666.272 260.131 666.272 241.628C666.272 223.125 668.623 205.257 673.324 188.023C678.206 170.79 684.987 154.736 693.667 139.861C702.527 124.805 713.105 111.109 725.401 98.7735C737.698 86.4381 751.259 75.9168 766.087 67.2095C781.095 58.3208 797.098 51.5182 814.096 46.8018C831.274 41.9039 849.085 39.455 867.529 39.455C891.579 39.455 914.815 43.6272 937.237 51.9717C959.659 60.1348 979.912 72.1074 997.994 87.8894L956.766 155.915C945.374 143.58 931.903 134.147 916.352 127.616C900.801 120.905 884.527 117.549 867.529 117.549C850.351 117.549 834.258 120.814 819.249 127.344C804.241 133.875 791.131 142.764 779.92 154.01C768.709 165.076 759.849 178.228 753.339 193.465C746.829 208.522 743.574 224.576 743.574 241.628C743.574 258.68 746.829 274.734 753.339 289.79C759.849 304.665 768.709 317.726 779.92 328.973C791.131 340.22 804.241 349.109 819.249 355.639C834.258 362.169 850.351 365.435 867.529 365.435C884.527 365.435 900.801 362.169 916.352 355.639C931.903 348.927 945.374 339.404 956.766 327.068L997.994 395.094Z" fill="#333333"/>
<path d="M1305.85 286.797C1305.85 308.565 1301.96 328.882 1294.18 347.748C1286.41 366.432 1275.83 382.668 1262.45 396.455C1249.07 410.06 1233.34 420.853 1215.25 428.835C1197.35 436.635 1178.09 440.535 1157.48 440.535C1137.05 440.535 1117.79 436.635 1099.71 428.835C1081.81 420.853 1066.07 410.06 1052.51 396.455C1039.13 382.668 1028.55 366.432 1020.78 347.748C1013 328.882 1009.11 308.565 1009.11 286.797C1009.11 264.666 1013 244.167 1020.78 225.302C1028.55 206.436 1039.13 190.2 1052.51 176.595C1066.07 162.808 1081.81 152.015 1099.71 144.215C1117.79 136.414 1137.05 132.514 1157.48 132.514C1178.09 132.514 1197.35 136.233 1215.25 143.671C1233.34 150.927 1249.07 161.357 1262.45 174.962C1275.83 188.386 1286.41 204.622 1294.18 223.669C1301.96 242.535 1305.85 263.577 1305.85 286.797ZM1231.26 286.797C1231.26 274.824 1229.27 264.031 1225.29 254.417C1221.49 244.621 1216.25 236.276 1209.56 229.383C1202.87 222.308 1195 216.957 1185.96 213.329C1177.1 209.52 1167.61 207.615 1157.48 207.615C1147.35 207.615 1137.77 209.52 1128.73 213.329C1119.87 216.957 1112.09 222.308 1105.4 229.383C1098.89 236.276 1093.74 244.621 1089.94 254.417C1086.15 264.031 1084.25 274.824 1084.25 286.797C1084.25 298.044 1086.15 308.474 1089.94 318.089C1093.74 327.703 1098.89 336.048 1105.4 343.122C1112.09 350.197 1119.87 355.82 1128.73 359.993C1137.77 363.984 1147.35 365.979 1157.48 365.979C1167.61 365.979 1177.1 364.074 1185.96 360.265C1195 356.455 1202.87 351.104 1209.56 344.211C1216.25 337.317 1221.49 328.973 1225.29 319.177C1229.27 309.381 1231.26 298.588 1231.26 286.797Z" fill="#333333"/>
<path d="M1627.53 435.093H1609.63L1580.88 395.094C1573.83 401.443 1566.32 407.429 1558.37 413.053C1550.59 418.495 1542.37 423.302 1533.69 427.474C1525.01 431.465 1516.06 434.64 1506.83 436.998C1497.79 439.356 1488.57 440.535 1479.17 440.535C1458.73 440.535 1439.48 436.726 1421.39 429.107C1403.49 421.307 1387.76 410.604 1374.2 396.999C1360.82 383.212 1350.24 366.977 1342.46 348.292C1334.69 329.426 1330.8 308.928 1330.8 286.797C1330.8 264.847 1334.69 244.439 1342.46 225.574C1350.24 206.708 1360.82 190.382 1374.2 176.595C1387.76 162.808 1403.49 152.015 1421.39 144.215C1439.48 136.414 1458.73 132.514 1479.17 132.514C1485.68 132.514 1492.37 133.059 1499.24 134.147C1506.29 135.235 1513.07 137.049 1519.58 139.589C1526.27 141.947 1532.51 145.122 1538.3 149.113C1544.08 153.103 1548.97 158.001 1552.94 163.806V27.7545H1627.53V435.093ZM1552.94 286.797C1552.94 276.638 1550.95 266.843 1546.98 257.41C1543.18 247.795 1537.94 239.36 1531.24 232.104C1524.55 224.667 1516.69 218.771 1507.65 214.417C1498.79 209.882 1489.29 207.615 1479.17 207.615C1469.04 207.615 1459.46 209.429 1450.42 213.057C1441.56 216.685 1433.78 221.946 1427.09 228.839C1420.58 235.551 1415.43 243.805 1411.63 253.6C1407.83 263.396 1405.93 274.462 1405.93 286.797C1405.93 297.5 1407.83 307.658 1411.63 317.272C1415.43 326.887 1420.58 335.322 1427.09 342.578C1433.78 349.834 1441.56 355.548 1450.42 359.721C1459.46 363.893 1469.04 365.979 1479.17 365.979C1489.29 365.979 1498.79 363.802 1507.65 359.448C1516.69 354.913 1524.55 349.018 1531.24 341.762C1537.94 334.324 1543.18 325.889 1546.98 316.456C1550.95 306.842 1552.94 296.955 1552.94 286.797Z" fill="#333333"/>
<path d="M1799.77 363.802C1802.66 364.709 1805.56 365.344 1808.45 365.707C1811.34 365.888 1814.23 365.979 1817.13 365.979C1824.36 365.979 1831.32 364.981 1838.01 362.986C1844.7 360.99 1850.94 358.179 1856.73 354.551C1862.7 350.741 1867.94 346.206 1872.46 340.945C1877.16 335.503 1880.96 329.517 1883.85 322.987L1938.1 377.679C1931.23 387.475 1923.27 396.273 1914.23 404.073C1905.37 411.874 1895.7 418.495 1885.21 423.937C1874.9 429.379 1863.96 433.461 1852.39 436.182C1841 439.084 1829.24 440.535 1817.13 440.535C1796.69 440.535 1777.44 436.726 1759.35 429.107C1741.45 421.488 1725.72 410.876 1712.16 397.271C1698.78 383.666 1688.2 367.521 1680.42 348.836C1672.65 329.971 1668.76 309.291 1668.76 286.797C1668.76 263.759 1672.65 242.716 1680.42 223.669C1688.2 204.622 1698.78 188.386 1712.16 174.962C1725.72 161.539 1741.45 151.108 1759.35 143.671C1777.44 136.233 1796.69 132.514 1817.13 132.514C1829.24 132.514 1841.09 133.966 1852.66 136.868C1864.23 139.77 1875.17 143.943 1885.48 149.385C1895.97 154.827 1905.73 161.539 1914.77 169.52C1923.81 177.321 1931.77 186.119 1938.64 195.914L1799.77 363.802ZM1837.74 210.608C1834.31 209.338 1830.87 208.522 1827.43 208.159C1824.18 207.796 1820.74 207.615 1817.13 207.615C1807 207.615 1797.42 209.52 1788.38 213.329C1779.52 216.957 1771.74 222.218 1765.05 229.111C1758.54 236.004 1753.39 244.349 1749.59 254.144C1745.79 263.759 1743.89 274.643 1743.89 286.797C1743.89 289.518 1743.98 292.602 1744.17 296.048C1744.53 299.495 1744.98 303.032 1745.52 306.66C1746.24 310.107 1747.06 313.463 1747.96 316.728C1748.87 319.993 1750.04 322.896 1751.49 325.436L1837.74 210.608Z" fill="#333333"/>
<path d="M2070.19 435.093H1996.14V217.683H1960.07V143.671H1996.14V129.793C1996.14 111.834 1999.49 94.9641 2006.18 79.1821C2013.05 63.4001 2022.36 49.7042 2034.12 38.0945C2046.05 26.3033 2059.88 17.0518 2075.62 10.3399C2091.35 3.44664 2108.16 0 2126.07 0H2181.67V74.0121H2126.07C2118.11 74.0121 2110.7 75.4633 2103.82 78.3658C2097.13 81.0868 2091.26 84.9869 2086.19 90.0662C2081.31 94.9641 2077.42 100.86 2074.53 107.753C2071.64 114.465 2070.19 121.812 2070.19 129.793V143.671H2161.06V217.683H2070.19V435.093Z" fill="#333333"/>
<path d="M2270.36 435.093H2196.32V143.671H2214.22L2238.63 178.228C2250.56 167.344 2264.13 158.999 2279.31 153.194C2294.5 147.208 2310.24 144.215 2326.51 144.215H2391.88V218.227H2326.51C2318.73 218.227 2311.41 219.678 2304.54 222.581C2297.67 225.483 2291.7 229.474 2286.64 234.553C2281.57 239.632 2277.6 245.619 2274.7 252.512C2271.81 259.405 2270.36 266.752 2270.36 274.552V435.093Z" fill="#333333"/>
<path d="M2536.45 363.802C2539.34 364.709 2542.23 365.344 2545.13 365.707C2548.02 365.888 2550.91 365.979 2553.81 365.979C2561.04 365.979 2568 364.981 2574.69 362.986C2581.38 360.99 2587.62 358.179 2593.41 354.551C2599.37 350.741 2604.62 346.206 2609.14 340.945C2613.84 335.503 2617.64 329.517 2620.53 322.987L2674.78 377.679C2667.91 387.475 2659.95 396.273 2650.91 404.073C2642.05 411.874 2632.37 418.495 2621.89 423.937C2611.58 429.379 2600.64 433.461 2589.07 436.182C2577.67 439.084 2565.92 440.535 2553.81 440.535C2533.37 440.535 2514.11 436.726 2496.03 429.107C2478.13 421.488 2462.4 410.876 2448.84 397.271C2435.46 383.666 2424.88 367.521 2417.1 348.836C2409.33 329.971 2405.44 309.291 2405.44 286.797C2405.44 263.759 2409.33 242.716 2417.1 223.669C2424.88 204.622 2435.46 188.386 2448.84 174.962C2462.4 161.539 2478.13 151.108 2496.03 143.671C2514.11 136.233 2533.37 132.514 2553.81 132.514C2565.92 132.514 2577.76 133.966 2589.34 136.868C2600.91 139.77 2611.85 143.943 2622.16 149.385C2632.65 154.827 2642.41 161.539 2651.45 169.52C2660.49 177.321 2668.45 186.119 2675.32 195.914L2536.45 363.802ZM2574.42 210.608C2570.98 209.338 2567.55 208.522 2564.11 208.159C2560.86 207.796 2557.42 207.615 2553.81 207.615C2543.68 207.615 2534.1 209.52 2525.05 213.329C2516.19 216.957 2508.42 222.218 2501.73 229.111C2495.22 236.004 2490.07 244.349 2486.27 254.144C2482.47 263.759 2480.57 274.643 2480.57 286.797C2480.57 289.518 2480.66 292.602 2480.84 296.048C2481.2 299.495 2481.66 303.032 2482.2 306.66C2482.92 310.107 2483.74 313.463 2484.64 316.728C2485.54 319.993 2486.72 322.896 2488.17 325.436L2574.42 210.608Z" fill="#333333"/>
<path d="M2826.13 363.802C2829.02 364.709 2831.91 365.344 2834.81 365.707C2837.7 365.888 2840.59 365.979 2843.49 365.979C2850.72 365.979 2857.68 364.981 2864.37 362.986C2871.06 360.99 2877.3 358.179 2883.09 354.551C2889.05 350.741 2894.3 346.206 2898.82 340.945C2903.52 335.503 2907.32 329.517 2910.21 322.987L2964.46 377.679C2957.59 387.475 2949.63 396.273 2940.59 404.073C2931.73 411.874 2922.05 418.495 2911.57 423.937C2901.26 429.379 2890.32 433.461 2878.75 436.182C2867.35 439.084 2855.6 440.535 2843.49 440.535C2823.05 440.535 2803.8 436.726 2785.71 429.107C2767.81 421.488 2752.08 410.876 2738.52 397.271C2725.14 383.666 2714.56 367.521 2706.78 348.836C2699.01 329.971 2695.12 309.291 2695.12 286.797C2695.12 263.759 2699.01 242.716 2706.78 223.669C2714.56 204.622 2725.14 188.386 2738.52 174.962C2752.08 161.539 2767.81 151.108 2785.71 143.671C2803.8 136.233 2823.05 132.514 2843.49 132.514C2855.6 132.514 2867.45 133.966 2879.02 136.868C2890.59 139.77 2901.53 143.943 2911.84 149.385C2922.33 154.827 2932.09 161.539 2941.13 169.52C2950.17 177.321 2958.13 186.119 2965 195.914L2826.13 363.802ZM2864.1 210.608C2860.66 209.338 2857.23 208.522 2853.79 208.159C2850.54 207.796 2847.1 207.615 2843.49 207.615C2833.36 207.615 2823.78 209.52 2814.74 213.329C2805.87 216.957 2798.1 222.218 2791.41 229.111C2784.9 236.004 2779.75 244.349 2775.95 254.144C2772.15 263.759 2770.25 274.643 2770.25 286.797C2770.25 289.518 2770.34 292.602 2770.52 296.048C2770.89 299.495 2771.34 303.032 2771.88 306.66C2772.6 310.107 2773.42 313.463 2774.32 316.728C2775.22 319.993 2776.4 322.896 2777.85 325.436L2864.1 210.608Z" fill="#333333"/>
<path d="M901.294 594.65L879.585 554.035H893.924L909.145 584.636L905.7 584.877L920.68 554.035H935.019L912.91 594.65V612.994H901.294V594.65Z" fill="#333333"/>
<path d="M976.712 583.595C976.712 579.536 977.486 575.691 979.035 572.06C980.584 568.428 982.72 565.224 985.444 562.447C988.221 559.616 991.425 557.4 995.057 555.798C998.688 554.196 1002.56 553.395 1006.67 553.395C1010.84 553.395 1014.74 554.196 1018.37 555.798C1022 557.4 1025.2 559.616 1027.98 562.447C1030.81 565.224 1033 568.428 1034.55 572.06C1036.15 575.691 1036.95 579.536 1036.95 583.595C1036.95 587.761 1036.15 591.659 1034.55 595.291C1033 598.922 1030.81 602.126 1027.98 604.904C1025.2 607.627 1022 609.763 1018.37 611.312C1014.74 612.861 1010.86 613.635 1006.75 613.635C1002.59 613.635 998.688 612.861 995.057 611.312C991.425 609.763 988.221 607.627 985.444 604.904C982.72 602.126 980.584 598.922 979.035 595.291C977.486 591.659 976.712 587.761 976.712 583.595ZM988.728 583.595C988.728 587.066 989.529 590.244 991.131 593.128C992.787 595.958 995.003 598.228 997.78 599.937C1000.56 601.592 1003.68 602.42 1007.15 602.42C1010.52 602.42 1013.53 601.592 1016.21 599.937C1018.93 598.228 1021.06 595.958 1022.61 593.128C1024.16 590.244 1024.94 587.066 1024.94 583.595C1024.94 580.017 1024.14 576.813 1022.53 573.982C1020.93 571.098 1018.77 568.829 1016.04 567.173C1013.32 565.464 1010.25 564.61 1006.83 564.61C1003.41 564.61 1000.34 565.464 997.62 567.173C994.897 568.829 992.734 571.098 991.131 573.982C989.529 576.813 988.728 580.017 988.728 583.595Z" fill="#333333"/>
<path d="M1101.4 591.205C1101.4 593.074 1101.96 594.863 1103.09 596.572C1104.21 598.281 1105.68 599.67 1107.49 600.738C1109.36 601.806 1111.39 602.34 1113.58 602.34C1115.98 602.34 1118.12 601.806 1119.99 600.738C1121.86 599.67 1123.33 598.281 1124.39 596.572C1125.52 594.863 1126.08 593.074 1126.08 591.205V554.035H1137.53V591.445C1137.53 595.771 1136.46 599.616 1134.33 602.981C1132.19 606.292 1129.31 608.909 1125.68 610.831C1122.04 612.701 1118.01 613.635 1113.58 613.635C1109.2 613.635 1105.2 612.701 1101.56 610.831C1097.99 608.909 1095.13 606.292 1092.99 602.981C1090.86 599.616 1089.79 595.771 1089.79 591.445V554.035H1101.4V591.205Z" fill="#333333"/>
<path d="M1211.86 554.035C1216.83 554.035 1221.02 554.863 1224.44 556.519C1227.86 558.121 1230.45 560.417 1232.21 563.408C1234.02 566.345 1234.93 569.843 1234.93 573.902C1234.93 576.305 1234.56 578.708 1233.81 581.112C1233.12 583.515 1231.94 585.704 1230.29 587.68C1228.68 589.656 1226.55 591.259 1223.88 592.487C1221.21 593.662 1217.9 594.249 1213.94 594.249H1205.61V612.994H1194V554.035H1211.86ZM1213.86 583.034C1216.21 583.034 1218.03 582.554 1219.31 581.592C1220.65 580.578 1221.58 579.403 1222.11 578.068C1222.65 576.679 1222.92 575.424 1222.92 574.303C1222.92 573.662 1222.81 572.861 1222.59 571.899C1222.43 570.885 1222.06 569.87 1221.47 568.855C1220.89 567.841 1219.98 566.986 1218.75 566.292C1217.57 565.598 1215.97 565.25 1213.94 565.25H1205.61V583.034H1213.86ZM1224.76 590.244L1239.34 612.994H1225.8L1210.9 590.564L1224.76 590.244Z" fill="#333333"/>
<path d="M1397.09 612.994V554.035H1414.72C1420.64 554.035 1425.69 554.917 1429.86 556.679C1434.02 558.441 1437.36 560.791 1439.87 563.728C1442.43 566.666 1444.3 569.95 1445.48 573.582C1446.65 577.213 1447.24 580.871 1447.24 584.556C1447.24 588.935 1446.44 592.887 1444.84 596.412C1443.29 599.883 1441.15 602.874 1438.43 605.384C1435.71 607.841 1432.55 609.737 1428.98 611.072C1425.4 612.353 1421.61 612.994 1417.6 612.994H1397.09ZM1408.71 601.779H1415.6C1419.55 601.779 1422.99 601.112 1425.93 599.777C1428.87 598.388 1431.14 596.359 1432.74 593.688C1434.4 591.018 1435.22 587.707 1435.22 583.755C1435.22 579.91 1434.58 576.786 1433.3 574.383C1432.07 571.926 1430.52 570.03 1428.66 568.695C1426.84 567.36 1424.97 566.452 1423.05 565.971C1421.13 565.437 1419.5 565.17 1418.16 565.17H1408.71V601.779Z" fill="#333333"/>
<path d="M1501.35 554.035H1512.97V612.994H1501.35V554.035Z" fill="#333333"/>
<path d="M1618.47 607.066C1617.77 607.814 1616.68 608.588 1615.18 609.389C1613.69 610.137 1611.95 610.831 1609.97 611.472C1608.05 612.113 1606.08 612.62 1604.05 612.994C1602.02 613.422 1600.09 613.635 1598.28 613.635C1591.92 613.635 1586.4 612.407 1581.7 609.95C1577 607.494 1573.36 604.129 1570.8 599.857C1568.29 595.584 1567.04 590.698 1567.04 585.197C1567.04 579.803 1567.84 575.13 1569.44 571.178C1571.1 567.173 1573.31 563.862 1576.09 561.245C1578.92 558.575 1582.15 556.599 1585.78 555.317C1589.47 554.035 1593.31 553.395 1597.32 553.395C1601.11 553.395 1604.58 553.822 1607.73 554.676C1610.88 555.477 1613.55 556.492 1615.74 557.72L1611.98 568.535C1611.02 568.001 1609.73 567.467 1608.13 566.933C1606.53 566.399 1604.9 565.971 1603.24 565.651C1601.59 565.277 1600.12 565.09 1598.84 565.09C1594.62 565.09 1591.02 565.811 1588.02 567.253C1585.09 568.642 1582.84 570.751 1581.3 573.582C1579.8 576.412 1579.05 579.937 1579.05 584.156C1579.05 587.841 1579.88 591.018 1581.54 593.688C1583.19 596.359 1585.49 598.415 1588.42 599.857C1591.42 601.299 1594.81 602.02 1598.6 602.02C1600.25 602.02 1601.78 601.913 1603.16 601.699C1604.55 601.432 1605.73 601.032 1606.69 600.498V593.368H1596.52V582.153H1618.47V607.066Z" fill="#333333"/>
<path d="M1674.12 554.035H1685.73V612.994H1674.12V554.035Z" fill="#333333"/>
<path d="M1739.4 554.035H1779.13V565.25H1764.8V612.994H1753.18V565.25H1739.4V554.035Z" fill="#333333"/>
<path d="M1821.38 612.994L1847.98 551.712H1848.62L1875.21 612.994H1861.75L1844.77 569.897L1853.18 564.129L1832.84 612.994H1821.38ZM1839.56 591.686H1857.27L1861.35 601.459H1835.96L1839.56 591.686Z" fill="#333333"/>
<path d="M1926.26 554.035H1937.88V601.779H1965.6V612.994H1926.26V554.035Z" fill="#333333"/>
<path d="M2143.63 554.035C2150.94 554.035 2156.55 555.851 2160.45 559.483C2164.35 563.061 2166.3 567.867 2166.3 573.902C2166.3 576.305 2165.92 578.735 2165.18 581.192C2164.48 583.595 2163.33 585.785 2161.73 587.761C2160.18 589.737 2158.07 591.339 2155.4 592.567C2152.79 593.742 2149.55 594.329 2145.71 594.329H2137.38V612.994H2125.76V554.035H2143.63ZM2145.63 583.034C2147.39 583.034 2148.86 582.741 2150.03 582.153C2151.21 581.512 2152.12 580.738 2152.76 579.83C2153.45 578.869 2153.93 577.881 2154.2 576.866C2154.52 575.851 2154.68 574.97 2154.68 574.222C2154.68 573.635 2154.57 572.861 2154.36 571.899C2154.2 570.885 2153.83 569.87 2153.24 568.855C2152.65 567.841 2151.74 566.986 2150.52 566.292C2149.34 565.598 2147.74 565.25 2145.71 565.25H2137.38V583.034H2145.63Z" fill="#333333"/>
<path d="M2206.47 612.994L2233.07 551.712H2233.71L2260.31 612.994H2246.85L2229.87 569.897L2238.28 564.129L2217.93 612.994H2206.47ZM2224.66 591.686H2242.36L2246.45 601.459H2221.05L2224.66 591.686Z" fill="#333333"/>
<path d="M2329.22 554.035C2334.19 554.035 2338.38 554.863 2341.8 556.519C2345.22 558.121 2347.81 560.417 2349.57 563.408C2351.38 566.345 2352.29 569.843 2352.29 573.902C2352.29 576.305 2351.92 578.708 2351.17 581.112C2350.48 583.515 2349.3 585.704 2347.65 587.68C2346.04 589.656 2343.91 591.259 2341.24 592.487C2338.57 593.662 2335.26 594.249 2331.3 594.249H2322.97V612.994H2311.36V554.035H2329.22ZM2331.22 583.034C2333.57 583.034 2335.39 582.554 2336.67 581.592C2338.01 580.578 2338.94 579.403 2339.47 578.068C2340.01 576.679 2340.28 575.424 2340.28 574.303C2340.28 573.662 2340.17 572.861 2339.96 571.899C2339.8 570.885 2339.42 569.87 2338.83 568.855C2338.25 567.841 2337.34 566.986 2336.11 566.292C2334.94 565.598 2333.33 565.25 2331.3 565.25H2322.97V583.034H2331.22ZM2342.12 590.244L2356.7 612.994H2343.16L2328.26 590.564L2342.12 590.244Z" fill="#333333"/>
<path d="M2403.55 554.035H2443.29V565.25H2428.95V612.994H2417.33V565.25H2403.55V554.035Z" fill="#333333"/>
<path d="M2549.74 615.398L2505.04 575.023L2508.49 576.946L2508.73 612.994H2496.95V551.712H2497.43L2541.17 591.926L2538.61 590.805L2538.37 554.035H2550.06V615.398H2549.74Z" fill="#333333"/>
<path d="M2607.7 554.035H2647.92V565.25H2619.32V577.827H2644.63V589.042H2619.32V601.779H2649.04V612.994H2607.7V554.035Z" fill="#333333"/>
<path d="M2721.38 554.035C2726.34 554.035 2730.54 554.863 2733.95 556.519C2737.37 558.121 2739.96 560.417 2741.72 563.408C2743.54 566.345 2744.45 569.843 2744.45 573.902C2744.45 576.305 2744.07 578.708 2743.33 581.112C2742.63 583.515 2741.46 585.704 2739.8 587.68C2738.2 589.656 2736.06 591.259 2733.39 592.487C2730.72 593.662 2727.41 594.249 2723.46 594.249H2715.13V612.994H2703.51V554.035H2721.38ZM2723.38 583.034C2725.73 583.034 2727.55 582.554 2728.83 581.592C2730.16 580.578 2731.1 579.403 2731.63 578.068C2732.16 576.679 2732.43 575.424 2732.43 574.303C2732.43 573.662 2732.33 572.861 2732.11 571.899C2731.95 570.885 2731.58 569.87 2730.99 568.855C2730.4 567.841 2729.49 566.986 2728.27 566.292C2727.09 565.598 2725.49 565.25 2723.46 565.25H2715.13V583.034H2723.38ZM2734.27 590.244L2748.85 612.994H2735.32L2720.42 590.564L2734.27 590.244Z" fill="#333333"/>
<path fill-rule="evenodd" clip-rule="evenodd" d="M626.926 313.463C626.926 486.584 486.584 626.926 313.463 626.926C140.342 626.926 0 486.584 0 313.463C0 140.342 140.342 0 313.463 0C486.584 0 626.926 140.342 626.926 313.463ZM557.267 313.463C557.267 448.113 448.112 557.268 313.463 557.268C255.628 557.268 202.496 537.13 160.698 503.483L211.657 455.963L250.995 494.943L300.026 445.462L262.642 408.419L410.794 270.265L455.425 313.679L323.417 445.687L372.673 494.943L529.652 337.964C536.242 331.374 539.916 322.416 539.852 313.096C539.788 303.775 535.99 294.869 529.309 288.37L461.799 222.702L513.686 174.316C541.159 213.775 557.267 261.738 557.267 313.463ZM411.808 174.074L466.161 123.389C424.372 89.7748 371.267 69.6584 313.463 69.6584C178.813 69.6584 69.6584 178.813 69.6584 313.463C69.6584 365.157 85.7471 413.094 113.19 452.539L162.139 406.894L93.9041 339.28C87.2836 332.719 83.5687 323.779 83.5902 314.459C83.6117 305.139 87.3678 296.216 94.0183 289.687L251.222 135.341L300.024 185.047L168.017 314.654L213.123 359.35L360.802 221.637L323.421 185.276L371.992 135.344L411.808 174.074Z" fill="#333333"/>
</svg>
