<svg width="602" height="176" viewBox="0 0 602 176" fill="none" xmlns="http://www.w3.org/2000/svg"><path d="M234.875 171.548h-35.628V50.985h35.603v23.2c1.52-2.56 2.734-4.84 4.167-6.973 8.028-12.023 19.292-18.617 33.668-19.953 7.599-.698 15.099-.22 22.453 1.9 12.133 3.517 20.075 11.41 24.402 23.188 3.002 8.2 3.787 16.693 3.824 25.297.073 24.206.024 48.399.024 72.605 0 .392-.037.797-.061 1.287h-35.739v-1.826c0-22 .062-44.012-.061-66.012a64.09 64.09 0 0 0-1.262-12.133c-1.692-8.481-7.624-13.874-16.166-15.173-4.596-.699-9.18-.6-13.69.441-8.334 1.924-13.935 7.109-17.318 14.842-3.003 6.864-4.044 14.132-4.106 21.51-.147 18.739-.086 37.479-.098 56.218-.012.65-.012 1.312-.012 2.145zM433.926.086V68.72c-.588-.87-.895-1.324-1.201-1.79-4.302-6.348-9.805-11.373-16.742-14.658-12.955-6.14-26.497-6.606-40.273-3.628-10.969 2.366-20.027 8.028-27.037 16.803-5.515 6.9-8.947 14.843-10.994 23.373-2.549 10.614-3.015 21.387-2.01 32.245.895 9.756 3.174 19.108 7.771 27.822 6.311 11.962 15.859 20.1 28.85 23.997 10.528 3.15 21.24 3.419 31.976 1.262 11.472-2.291 20.921-7.905 27.822-17.501.551-.76 1.054-1.545 1.593-2.329.11.025.233.061.343.086v17.122h35.665V.074c-11.913.012-23.74.012-35.763.012zM434 112.658c0 21.73-12.71 35.297-30.984 35.297-21.374 0-31.29-14.781-31.29-36.805 0-21.73 9.916-36.51 31.29-36.51 18.286 0 30.984 13.58 30.984 35.003v3.015zM601.393 52.162v-1.19h-35.8v5.835c-.013 22.453-.062 44.146-.062 65.913 0 7.292-.943 11.594-2.953 15.81-2.317 4.878-8.163 10.724-20.247 10.761h-.295c-12.084-.037-17.93-5.883-20.247-10.761-2.01-4.228-2.953-8.53-2.953-15.81 0-21.767-.062-43.46-.062-65.913v-5.822h-35.799v1.189c0 24.255-.05 41.438.024 65.692.025 10.026.674 22.834 5.16 32.001 4.387 8.959 11.312 14.952 20.198 19.499 9.768 5.001 20.443 6.116 32.601 6.226h2.598c12.097-.122 22.735-1.237 32.466-6.226 8.886-4.547 15.811-10.528 20.198-19.499 4.486-9.167 5.136-21.975 5.16-32.001.062-24.254.013-41.45.013-65.704zM185.998 52.162v-1.19h-35.8v5.835c-.012 22.453-.061 44.146-.061 65.913 0 7.292-.944 11.594-2.954 15.81-2.316 4.878-8.163 10.724-20.247 10.761h-.294c-12.085-.037-17.931-5.883-20.247-10.761-2.01-4.228-2.954-8.53-2.954-15.81 0-21.767-.061-43.46-.061-65.913v-5.822H35.726l.013-12.93c-.05-6.74 5.564-12.22 12.427-12.305 0 0 39.195-.061 41.806-.061h13.396V0H48.301C11.006 0 .478 17.967.478 40.494c0 6.25-.478 99.838-.478 131.03h35.763v-54.417h-.135c0-7.734-.012-23.704.013-38.815h31.914a8766.78 8766.78 0 0 0 .037 39.587c.025 10.025.674 22.833 5.16 32 4.388 8.96 11.312 14.953 20.198 19.5 9.768 5 20.443 6.116 32.601 6.226h2.598c12.097-.123 22.735-1.238 32.467-6.226 8.885-4.547 15.81-10.528 20.198-19.5 4.485-9.167 5.135-21.975 5.159-32 .074-24.267.025-41.463.025-65.717z" fill="#112530"/></svg>