<?xml version="1.0" encoding="utf-8"?>
<!-- Generator: Adobe Illustrator 16.0.0, SVG Export Plug-In . SVG Version: 6.00 Build 0)  -->
<!DOCTYPE svg PUBLIC "-//W3C//DTD SVG 1.1//EN" "http://www.w3.org/Graphics/SVG/1.1/DTD/svg11.dtd">
<svg version="1.1" id="Layer_1" xmlns="http://www.w3.org/2000/svg" xmlns:xlink="http://www.w3.org/1999/xlink" x="0px" y="0px"
	 width="4333px" height="1128px" viewBox="0 0 4333 1128" enable-background="new 0 0 4333 1128" xml:space="preserve">
<g>
	<defs>
		<rect id="SVGID_1_" x="122.875" y="123.36" width="4087.25" height="881.279"/>
	</defs>
	<clipPath id="SVGID_2_">
		<use xlink:href="#SVGID_1_"  overflow="visible"/>
	</clipPath>
	<g clip-path="url(#SVGID_2_)">
		<path fill="#8EBC00" d="M632.803,540.016h84.076c0,0,14.665-213.131-310.892-201.399c0,0-299.16-13.199-255.166,239.034
			c0,0,4.4,108.525,243.434,118.789c0,0,202.374,16.865,230.236,52.795c0,0,38.861,30.794,19.064,95.319
			c0,0-4.4,47.661-85.056,74.058c0,0-340.92,68.74-354.153-129.05h-81.388c0,0-7.333,127.583,114.384,180.375
			c0,0,84.323,38.13,206.04,34.462c0,0,173.776,5.867,252.231-77.723c0,0,82.124-78.456,25.665-206.038
			c0,0-25.665-74.791-252.967-97.521c0,0-218.503-19.802-225.836-69.662c0,0-22.237-43.262,9.533-88.723
			c0,0,22.483-53.771,159.352-54.259c0,0,128.075-6.846,176.469,44.48C587.83,454.954,617.165,476.957,632.803,540.016z"/>
		<path fill="#8EBC00" d="M1175.884,338.049c0,0-342.667-22.237-360.265,333.255c0,0-13.685,330.552,360.265,333.243
			c0,0,343.647,14.896,355.379-333.38C1531.263,671.167,1548.86,344.432,1175.884,338.049z M1441.315,671.304
			c-5.867,268.25-267.843,259.669-267.843,259.669c-279.568-11.731-267.906-259.669-267.906-259.669
			C915.34,395,1173.472,408.91,1173.472,408.91C1459.961,422.595,1441.315,671.304,1441.315,671.304z"/>
		<path fill="#8EBC00" d="M1985.376,203.215v-74.057c0,0-179.644-24.931-233.169,28.596c0,0-40.329,31.528-43.994,101.919v106.32
			h-137.115v67.456h136.382v571.19h90.188V433.21h291.341v434.327c0,0-3.179,113.639,88.475,128.304c0,0,66.725,19.798,178.177,0
			V923.25c0,0-126.85,21.997-156.912-10.998c0,0-15.397-5.134-19.798-55.713V434.183h176.71v-68.189h-176.71V168.02h-88.967v198.213
			h-292.802v-90.914c0,0-3.426-50.348,42.035-69.411C1839.215,205.907,1878.323,191.723,1985.376,203.215z"/>
		<g>
			<rect x="2450.246" y="435.156" fill="#8EBC00" width="187.709" height="569.483"/>
			<rect x="2450.246" y="234.737" fill="#8EBC00" width="187.709" height="131.004"/>
		</g>
		<path fill="#8EBC00" d="M2765.05,1004.64"/>
		<path fill="#8EBC00" d="M2765.05,435.156v569.483h185.757V719.903c0,0-3.427-132.721,119.024-151.785
			c0,0,166.442-38.861,166.442,117.324v319.197h186.243V607.713c0,0,0.732-132.474-145.182-172.557c0,0-96.786-31.774-200.907,0
			c0,0-81.387,20.039-129.78,83.102v-83.102H2765.05z"/>
		<path fill="#8EBC00" d="M3552.66,435.156v569.483h185.753V719.903c0,0-3.426-132.721,119.026-151.785
			c0,0,166.443-38.861,166.443,117.324v319.197h186.242V607.713c0,0,0.732-132.474-145.182-172.557c0,0-96.787-31.774-200.904,0
			c0,0-81.391,20.039-129.783,83.102v-83.102H3552.66z"/>
	</g>
</g>
</svg>
