<?xml version="1.0" encoding="UTF-8"?>
<!DOCTYPE svg PUBLIC "-//W3C//DTD SVG 1.1//EN" "http://www.w3.org/Graphics/SVG/1.1/DTD/svg11.dtd">
<!-- Creator: CorelDRAW 2020 (64-Bit Evaluation Version) -->
<svg xmlns="http://www.w3.org/2000/svg" xml:space="preserve" width="186.618mm" height="54.2166mm" version="1.1" style="shape-rendering:geometricPrecision; text-rendering:geometricPrecision; image-rendering:optimizeQuality; fill-rule:evenodd; clip-rule:evenodd"
viewBox="0 0 18660.78 5421.35"
 xmlns:xlink="http://www.w3.org/1999/xlink"
 xmlns:xodm="http://www.corel.com/coreldraw/odm/2003">
 <defs>
  <style type="text/css">
   <![CDATA[
    .fil0 {fill:#1F1B20}
    .fil1 {fill:#4285F4}
    .fil2 {fill:#1F1B20;fill-rule:nonzero}
   ]]>
  </style>
 </defs>
 <g id="Layer_x0020_1">
  <metadata id="CorelCorpID_0Corel-Layer"/>
  <g id="_1673458826752">
   <polygon class="fil0" points="275.15,4961.5 5421.31,4961.5 5421.31,5421.3 275.15,5421.3 "/>
   <polygon class="fil0" points="5421.28,275.18 5421.28,5421.34 4961.49,5421.34 4961.49,275.18 "/>
   <polygon class="fil0" points="734.95,1218.58 734.95,5421.35 275.15,5421.35 275.15,1218.58 "/>
   <polygon class="fil0" points="1218.53,275.17 5421.29,275.17 5421.29,734.98 1218.53,734.98 "/>
   <path class="fil1" d="M-0 0l1010.13 0 0 1010.12 -1010.13 0 0 -1010.12zm291.38 291.38l427.36 0 0 427.36 -427.36 0 0 -427.36z"/>
   <path class="fil1" d="M2839.67 4640.88c38.86,-46.11 67.12,-107.99 101.14,-166.53 33.32,-57.29 63.23,-112 97.24,-168.33 68.32,-113.1 131.19,-224.77 195.45,-335.74l246.54 -422.68c22.6,-43.33 4.7,-55.78 -16.07,-89.74 -31.83,-52.08 -61.14,-105.62 -94.6,-162.97 -195.65,-335.15 -447.84,-755.87 -636.06,-1095.02 -23.66,-42.65 -7.49,-45.8 15.79,-84.95 14.78,-24.87 33.26,-56.49 47.45,-81.1l51.7 -79.58c1.6,1.52 3.58,3.75 4.51,4.85l852.89 1462.47c29.93,50.5 33.51,87.72 95.43,110.16 103.77,37.62 555.46,215.11 616.61,226.27 -13.35,-42.58 -72.94,-133.4 -98.94,-178.56l-682.75 -1176.38c-38.99,-67.51 -758.28,-1318.16 -787.75,-1347.4 -27.29,26.75 -523.66,893.26 -589.23,1006.32 -74.03,127.67 -71.14,93.17 -27.14,168.88 32.75,56.34 62.16,111.24 96.83,168.69 192.7,319.11 394.32,699.23 584.76,1008.47 74.08,120.31 68.33,98.43 28.31,167.72 -29.53,51.15 -67.4,128.02 -102.1,166.49l-30.51 -41.29c-100.63,-175.36 -709.51,-1238.48 -749.15,-1283.99l-103.32 165.03c-72.77,126.88 -663.23,1132.35 -677.9,1175.98 45.27,-8.16 378.54,-137.15 447.79,-163.16 248.7,-93.38 188.28,-46.27 273.77,-189.39 11.12,-18.6 16.93,-29.64 28.1,-49l31.56 -40.34c31.78,33.35 642.76,1098.65 727.65,1246.04 16.17,28.1 28.83,57.04 52.01,78.76z"/>
   <g>
    <path class="fil2" d="M6205.07 4213.54l144.59 -681.65 1864.23 0c61.97,0 107.58,-12.05 136.84,-36.15 29.27,-24.1 50.79,-68.86 64.56,-134.27l103.28 -485.42c3.44,-13.77 5.16,-32.7 5.16,-56.8 0,-61.98 -44.76,-92.95 -134.26,-92.95l-1378.81 0c-141.14,0 -243.57,-30.13 -307.25,-90.37 -63.7,-60.25 -95.53,-145.45 -95.53,-255.62 0,-41.32 5.16,-91.23 15.49,-149.76l191.07 -903.71c44.76,-206.57 120.49,-359.76 227.22,-459.6 106.72,-99.83 273.69,-149.76 500.91,-149.76l2174.07 0 -139.42 666.17 -1853.9 0c-55.09,0 -94.67,12.05 -118.77,36.15 -24.11,24.1 -43.04,67.13 -56.81,129.1l-98.12 459.59c-3.44,13.77 -6.02,25.82 -7.74,36.15 -1.72,10.33 -2.58,20.66 -2.58,30.99 0,51.64 37.87,77.46 113.6,77.46l1399.46 0c144.59,0 248.74,30.99 312.42,92.95 63.7,61.97 95.53,148.04 95.53,258.21 0,44.76 -5.16,92.95 -15.49,144.59l-201.4 955.36c-44.76,206.56 -120.49,359.76 -227.22,459.59 -106.72,99.84 -271.97,149.76 -495.75,149.76l-2215.38 0zm3335.98 0l144.59 -681.65 1864.23 0c61.97,0 107.58,-12.05 136.84,-36.15 29.27,-24.1 50.79,-68.86 64.56,-134.27l103.28 -485.42c3.44,-13.77 5.16,-32.7 5.16,-56.8 0,-61.98 -44.76,-92.95 -134.26,-92.95l-1378.81 0c-141.14,0 -243.57,-30.13 -307.25,-90.37 -63.7,-60.25 -95.53,-145.45 -95.53,-255.62 0,-41.32 5.16,-91.23 15.49,-149.76l191.07 -903.71c44.76,-206.57 120.49,-359.76 227.22,-459.6 106.72,-99.83 273.69,-149.76 500.91,-149.76l2174.07 0 -139.42 666.17 -1853.9 0c-55.09,0 -94.67,12.05 -118.77,36.15 -24.11,24.1 -43.04,67.13 -56.81,129.1l-98.12 459.59c-3.44,13.77 -6.02,25.82 -7.74,36.15 -1.72,10.33 -2.58,20.66 -2.58,30.99 0,51.64 37.87,77.46 113.6,77.46l1399.46 0c144.59,0 248.74,30.99 312.42,92.95 63.7,61.97 95.53,148.04 95.53,258.21 0,44.76 -5.16,92.95 -15.49,144.59l-201.4 955.36c-44.76,206.56 -120.49,359.76 -227.22,459.59 -106.72,99.84 -271.97,149.76 -495.75,149.76l-2215.38 0zm4379.11 -1125.77l-237.55 1125.77 -784.94 0 542.23 -2556.21 784.94 0 -170.41 795.27 1079.29 0c65.41,0 111.02,-13.78 136.84,-41.32 25.82,-27.54 47.34,-80.91 64.56,-160.08l149.75 -686.82c6.89,-34.43 10.33,-58.53 10.33,-72.3 0,-37.87 -11.19,-62.84 -33.57,-74.89 -22.38,-12.05 -57.67,-18.07 -105.86,-18.07l-1864.23 0 144.6 -681.66 2189.56 0c175.58,0 301.23,30.99 376.98,92.95 75.74,61.98 113.6,158.37 113.6,289.19 0,34.43 -2.58,69.72 -7.74,105.86 -5.17,36.15 -11.19,76.6 -18.08,121.35l-242.71 1151.59c-44.76,206.56 -120.49,359.76 -227.22,459.6 -106.72,99.83 -271.97,149.75 -495.75,149.75l-1404.63 0zm4590.85 1125.77l-2344.49 0 738.47 -3496.07 784.94 0 -588.71 2788.59 1559.55 0 -149.76 707.48z"/>
    <g>
     <path class="fil2" d="M6627.82 4360.09l158.86 0 -11.75 55.23c-2.32,10.71 -6.45,18.59 -12.52,23.75 -6.06,5.16 -14.32,7.74 -24.65,7.74l-89.17 0c-19.48,0 -34.97,6.33 -46.59,18.85 -11.61,12.64 -17.42,29.29 -17.42,49.94 0,7.87 2.71,14.71 8.13,20.78 5.42,6.06 14.84,12.39 28.27,18.97l80.53 38.46c21.94,10.32 37.94,23.75 48.14,40.27 10.19,16.52 15.35,37.29 15.35,62.2 0,63.76 -15.74,113.18 -47.23,148.02 -31.62,34.98 -76.27,52.4 -134.34,52.4l-112.92 0c-28.91,0 -48.26,-2.19 -57.94,-6.58 -9.68,-4.52 -14.59,-12.39 -14.59,-23.75 0,-2.19 0.39,-5.94 1.16,-11.36 0.26,-1.16 0.39,-2.06 0.39,-2.58l16.26 -69.56 13.55 0c1.04,11.36 4.39,19.36 9.94,24.01 5.68,4.64 15.62,6.96 29.69,6.96l90.71 0c28.52,0 51.63,-8.9 69.44,-26.58 17.81,-17.81 26.71,-40.65 26.71,-68.66 0,-10.58 -2.84,-19.49 -8.39,-26.59 -5.55,-7.22 -14.58,-13.55 -27.23,-19.1l-93.04 -40.91c-18.07,-8.26 -31.23,-19.36 -39.49,-33.3 -8.13,-13.8 -12.26,-32.26 -12.26,-55.23 0,-56.92 13.55,-101.69 40.65,-134.34 27.1,-32.65 64.4,-49.04 111.76,-49.04zm586.41 -18.59l13.94 0c-0.78,3.23 -1.81,8.13 -2.97,14.33 -11.87,57.56 -30.07,86.34 -54.46,86.34l-82.86 0 -97.56 399.02c-0.77,2.46 -1.29,4.91 -1.68,7.36 -0.38,2.32 -0.51,4.65 -0.51,6.97 0,7.74 2.45,13.94 7.48,18.46 5.04,4.64 12.26,7.22 21.56,8l-2.97 14.71 -100.66 0c-13.81,0 -24.13,-2.32 -30.71,-6.97 -6.71,-4.65 -10.07,-11.87 -10.07,-21.68 0,-3.61 0.13,-6.32 0.39,-8.13 0.26,-1.94 0.64,-3.62 1.16,-5.16l98.2 -412.58 -77.43 0c-10.33,0 -18.07,1.67 -23.1,4.9 -5.04,3.36 -8.39,8.91 -10.07,16.78l-14.71 0c1.03,-4 2.32,-9.68 3.74,-17.04 12.91,-57.82 34.46,-86.72 64.92,-86.72l264.3 0c10.84,0 18.71,-1.42 23.62,-4.13 4.9,-2.84 8.38,-7.62 10.45,-14.46zm174.47 128.66l-114.59 201.97 123.24 0 -8.65 -201.97zm-71.11 -110.07l133.83 0c14.06,0 24.13,2.83 30.07,8.64 5.93,5.81 9.42,16.13 10.32,31.11l25.43 439.42c0.77,11.74 3.74,21.42 9.03,28.65 5.29,7.36 12.65,12 21.94,14.07l-2.32 14.71 -94.46 0c-14.84,0 -25.94,-4 -33.3,-11.87 -7.36,-8 -11.49,-20.65 -12.52,-38.08l-5.29 -100.26 -160.28 0 -54.08 104.52c-1.29,2.2 -2.19,4.39 -2.84,6.59 -0.64,2.06 -1.03,4.38 -1.29,6.58 0,5.8 1.42,10.06 4.26,12.65 2.97,2.71 7.88,4.38 14.97,5.16l-1.8 14.71 -104.92 0c-7.1,0 -12.52,-1.68 -16.39,-4.9 -4,-3.36 -5.93,-7.88 -5.93,-13.68 0,-4.26 1.16,-9.43 3.35,-15.49 2.32,-6.07 6.07,-13.55 11.49,-22.72l238.23 -424.96c3.1,-5.55 5.29,-10.2 6.71,-14.07 1.29,-3.74 2.06,-6.97 2.06,-9.81 0,-5.29 -1.67,-9.29 -4.9,-12 -3.35,-2.84 -8.13,-4.26 -14.45,-4.26l3.09 -14.71zm344.31 0l107.88 0c17.81,0 31.62,4.38 41.3,13.03 9.81,8.65 18.59,26.84 26.72,54.2l88.14 296.56 73.7 -317.72c0.25,-1.03 0.38,-2.07 0.51,-3.23 0.13,-1.03 0.26,-2.84 0.26,-5.03 0,-6.84 -2.19,-12.13 -6.71,-16.13 -4.39,-3.87 -10.58,-6.2 -18.72,-6.97l2.72 -14.71 91.49 0c10.84,0 18.84,1.67 24,5.16 5.16,3.35 7.75,8.52 7.75,15.61 0,2.97 -0.13,5.55 -0.39,7.75 -0.26,2.19 -0.65,4.26 -1.16,6.19l-119.11 501.88 -66.08 0c-14.97,0 -28.14,-5.29 -39.49,-15.87 -11.49,-10.59 -20.27,-25.69 -26.33,-45.3l-94.85 -305.34 -75.37 320.82c0,0.26 0,0.91 -0.26,1.81 -0.77,3.87 -1.16,6.58 -1.16,8.39 0,6.84 2.2,11.87 6.71,15.1 4.65,3.23 11.75,5.16 21.68,5.68l-3.09 14.71 -102.72 0c-8.01,0 -14.33,-2.19 -18.85,-6.45 -4.51,-4.26 -6.84,-10.07 -6.84,-17.3 0,-1.03 0.13,-2.32 0.52,-4 0.39,-1.68 0.77,-3.48 1.03,-5.55l109.05 -456.06c0.77,-2.84 1.29,-4.65 1.42,-5.68 0.13,-1.03 0.13,-2.06 0.13,-2.97 0,-6.58 -2.33,-12 -7.23,-16.26 -4.78,-4.39 -11.36,-6.97 -19.62,-8l2.97 -14.32zm644.87 82.08l-89.95 367.79 108.53 0c14.33,0 26.46,-2.71 36.39,-8 9.94,-5.29 18.46,-13.42 25.56,-24.52 4.77,-8 9.55,-17.42 14.19,-28.13 4.65,-10.72 10.46,-25.95 17.56,-45.56 13.03,-39.62 23.36,-77.18 30.84,-112.66 7.36,-35.49 11.1,-64.53 11.1,-86.99 0,-20.9 -5.16,-36.39 -15.36,-46.59 -10.19,-10.19 -25.42,-15.35 -45.81,-15.35l-93.04 0zm-132.28 -82.08l268.29 0c47.24,0 82.08,10.45 104.53,31.23 22.46,20.78 33.68,52.91 33.68,96.52 0,24.01 -2.96,52.66 -9.03,85.96 -6.07,33.16 -14.97,70.2 -26.46,110.72 -9.93,34.33 -19.48,62.98 -28.78,85.82 -9.29,22.97 -18.97,42.2 -28.78,57.56 -15.61,24.65 -34.46,42.33 -56.27,52.92 -21.94,10.58 -51.49,15.87 -88.53,15.87l-208.94 0c-19.1,0 -31.49,-1.94 -37.16,-5.68 -5.68,-3.74 -8.52,-10.71 -8.52,-20.78 0,-2.06 0.51,-5.68 1.55,-10.71 0.9,-5.03 2.58,-12.26 4.77,-21.94l98.98 -412.45c1.42,-5.81 2.58,-10.84 3.35,-15.1 0.78,-4.39 1.17,-7.87 1.17,-10.58 0,-7.62 -2.2,-13.42 -6.59,-17.3 -4.51,-3.87 -11.48,-6.32 -21.03,-7.35l3.74 -14.71zm497.24 0l117.56 0c9.42,0 16.13,1.42 20.26,4.25 4.13,2.71 6.19,7.36 6.19,13.68 0,1.55 -0.25,3.49 -0.64,5.94 -0.52,2.45 -1.03,4.78 -1.55,7.1l-84.79 348.44c-1.94,8.77 -3.36,15.61 -4.13,20.26 -0.78,4.65 -1.16,8.52 -1.16,11.49 0,16.13 6.06,28 18.19,35.74 12.14,7.62 30.85,11.49 56.4,11.49 28.4,0 49.43,-6.07 63.11,-18.33 13.55,-12.26 24.78,-36 33.69,-71.24l78.21 -317.85c0.51,-1.8 0.9,-3.74 1.16,-5.8 0.26,-2.2 0.38,-5.04 0.38,-8.52 0,-6.33 -2.06,-11.36 -6.45,-14.97 -4.26,-3.62 -10.45,-5.94 -18.45,-6.97l2.97 -14.71 108.52 0c12.65,0 21.3,1.54 26.07,4.77 4.78,3.23 7.23,8.65 7.23,16.26 0,3.23 -0.13,5.94 -0.39,8 -0.26,2.07 -0.64,4 -1.16,6.07l-90.72 366.25c-12.64,51.36 -35.62,88.01 -69.04,109.69 -33.43,21.68 -84.15,32.52 -152.15,32.52 -61.31,0 -105.82,-9.03 -133.57,-27.23 -27.75,-18.2 -41.55,-46.98 -41.55,-86.6 0,-7.36 0.38,-14.58 1.29,-21.81 0.9,-7.23 2.19,-14.33 4,-21.3l80.53 -333.72c0.77,-2.84 1.29,-5.29 1.68,-7.62 0.38,-2.19 0.64,-4.38 0.64,-6.45 0,-6.45 -2.19,-11.87 -6.58,-16.26 -4.52,-4.26 -10.71,-6.84 -18.84,-7.87l3.1 -14.71zm626.53 77.43l-41.95 168.8 37.43 0c26.33,0 45.82,-1.81 58.72,-5.29 12.78,-3.49 22.85,-9.42 30.2,-17.81 9.55,-11.36 17.43,-25.94 23.49,-43.75 6.07,-17.68 9.04,-35.24 9.04,-52.4 0,-17.94 -3.75,-30.59 -11.1,-38.2 -7.49,-7.62 -19.75,-11.36 -36.91,-11.36l-68.92 0zm-131.5 -77.43l253.33 0c36.52,0 63.63,8.9 81.05,26.71 17.55,17.68 26.33,45.3 26.33,82.6 0,32 -5.04,63.37 -14.97,94.07 -9.94,30.85 -22.72,54.85 -38.33,72.27 -15.88,17.69 -35.24,30.2 -58.21,37.69 -22.97,7.36 -59.24,11.1 -108.92,11.1l-69.94 0 -38.59 163.38c0,0.25 -0.13,0.9 -0.39,1.93 -0.77,3.49 -1.16,6.33 -1.16,8.26 0,7.62 2.58,13.42 7.61,17.68 5.04,4.13 12.26,6.2 21.94,6.2l-3.48 14.71 -117.44 0c-8.64,0 -15.35,-2.32 -20.39,-6.84 -5.03,-4.52 -7.61,-10.84 -7.61,-18.84 0,-0.78 0.13,-1.94 0.39,-3.62 0.25,-1.67 0.64,-4 1.16,-6.97l109.95 -453.73c0.12,-0.91 0.38,-2.07 0.51,-3.36 0.13,-1.29 0.13,-2.97 0.13,-5.29 0,-6.45 -2.19,-11.75 -6.71,-15.75 -4.65,-4 -10.97,-6.45 -19.36,-7.48l3.1 -14.71zm799.48 0l158.86 0 -11.75 55.23c-2.32,10.71 -6.45,18.59 -12.52,23.75 -6.06,5.16 -14.32,7.74 -24.65,7.74l-89.17 0c-19.48,0 -34.97,6.33 -46.59,18.85 -11.61,12.64 -17.42,29.29 -17.42,49.94 0,7.87 2.71,14.71 8.13,20.78 5.42,6.06 14.84,12.39 28.27,18.97l80.53 38.46c21.94,10.32 37.94,23.75 48.14,40.27 10.19,16.52 15.35,37.29 15.35,62.2 0,63.76 -15.74,113.18 -47.23,148.02 -31.62,34.98 -76.27,52.4 -134.34,52.4l-112.92 0c-28.91,0 -48.26,-2.19 -57.94,-6.58 -9.68,-4.52 -14.59,-12.39 -14.59,-23.75 0,-2.19 0.39,-5.94 1.16,-11.36 0.26,-1.16 0.39,-2.06 0.39,-2.58l16.26 -69.56 13.55 0c1.04,11.36 4.39,19.36 9.94,24.01 5.68,4.64 15.62,6.96 29.69,6.96l90.71 0c28.52,0 51.63,-8.9 69.44,-26.58 17.81,-17.81 26.71,-40.65 26.71,-68.66 0,-10.58 -2.84,-19.49 -8.39,-26.59 -5.55,-7.22 -14.58,-13.55 -27.23,-19.1l-93.04 -40.91c-18.07,-8.26 -31.23,-19.36 -39.49,-33.3 -8.13,-13.8 -12.26,-32.26 -12.26,-55.23 0,-56.92 13.55,-101.69 40.65,-134.34 27.1,-32.65 64.4,-49.04 111.76,-49.04zm586.41 -18.59l13.94 0c-0.78,3.23 -1.81,8.13 -2.97,14.33 -11.87,57.56 -30.07,86.34 -54.46,86.34l-82.86 0 -97.56 399.02c-0.77,2.46 -1.29,4.91 -1.68,7.36 -0.38,2.32 -0.51,4.65 -0.51,6.97 0,7.74 2.45,13.94 7.48,18.46 5.04,4.64 12.26,7.22 21.56,8l-2.97 14.71 -100.66 0c-13.81,0 -24.13,-2.32 -30.71,-6.97 -6.71,-4.65 -10.07,-11.87 -10.07,-21.68 0,-3.61 0.13,-6.32 0.39,-8.13 0.26,-1.94 0.64,-3.62 1.16,-5.16l98.2 -412.58 -77.43 0c-10.33,0 -18.07,1.67 -23.1,4.9 -5.04,3.36 -8.39,8.91 -10.07,16.78l-14.71 0c1.03,-4 2.32,-9.68 3.74,-17.04 12.91,-57.82 34.46,-86.72 64.92,-86.72l264.3 0c10.84,0 18.71,-1.42 23.62,-4.13 4.9,-2.84 8.38,-7.62 10.45,-14.46zm174.47 128.66l-114.59 201.97 123.24 0 -8.65 -201.97zm-71.11 -110.07l133.83 0c14.06,0 24.13,2.83 30.07,8.64 5.93,5.81 9.42,16.13 10.32,31.11l25.43 439.42c0.77,11.74 3.74,21.42 9.03,28.65 5.29,7.36 12.65,12 21.94,14.07l-2.32 14.71 -94.46 0c-14.84,0 -25.94,-4 -33.3,-11.87 -7.36,-8 -11.49,-20.65 -12.52,-38.08l-5.29 -100.26 -160.28 0 -54.08 104.52c-1.29,2.2 -2.19,4.39 -2.84,6.59 -0.64,2.06 -1.03,4.38 -1.29,6.58 0,5.8 1.42,10.06 4.26,12.65 2.97,2.71 7.88,4.38 14.97,5.16l-1.8 14.71 -104.92 0c-7.1,0 -12.52,-1.68 -16.39,-4.9 -4,-3.36 -5.93,-7.88 -5.93,-13.68 0,-4.26 1.16,-9.43 3.35,-15.49 2.32,-6.07 6.07,-13.55 11.49,-22.72l238.23 -424.96c3.1,-5.55 5.29,-10.2 6.71,-14.07 1.29,-3.74 2.06,-6.97 2.06,-9.81 0,-5.29 -1.67,-9.29 -4.9,-12 -3.35,-2.84 -8.13,-4.26 -14.45,-4.26l3.09 -14.71zm476.07 76.66l-35.62 149.44 67.37 0c28.52,0 50.2,-9.43 65.04,-28.14 14.84,-18.71 22.33,-45.94 22.33,-81.69 0,-13.55 -4.13,-23.62 -12.52,-29.94 -8.26,-6.46 -21.42,-9.68 -39.36,-9.68l-67.24 0zm-130.86 -76.66l253.33 0c36.27,0 64.02,9.16 83.25,27.36 19.23,18.32 28.78,44.78 28.78,79.24 0,53.69 -13.94,98.07 -41.69,133.3 -27.75,35.11 -63.24,52.66 -106.2,52.66l-1.55 0 47.23 136.28c3.36,8.51 7.62,14.84 12.91,18.84 5.29,4.13 12,6.06 20.26,6.06 2.84,0 5.68,-0.12 8.78,-0.51 2.97,-0.39 6.19,-1.03 9.81,-1.68 -5.3,31.23 -9.43,51.49 -12.14,60.66 -2.84,9.16 -5.93,15.36 -9.42,18.32 -2.58,2.07 -8.13,3.49 -16.78,4.52 -8.77,1.03 -21.42,1.55 -37.94,1.55 -24.26,0 -40.14,-2.32 -47.62,-6.84 -7.62,-4.52 -13.16,-12.78 -16.65,-24.91l-59.75 -200.55 -39.37 0 -44.26 184.29c-0.26,1.03 -0.39,2.19 -0.52,3.36 -0.13,1.29 -0.26,3.35 -0.26,6.06 0,7.36 2.45,13.04 7.23,17.04 4.77,4 11.87,6.32 21.17,6.84l-3.75 14.71 -116.79 0c-8.51,0 -15.22,-2.06 -20,-6.07 -4.77,-4 -7.23,-9.68 -7.23,-17.03 0,-2.2 0.52,-5.42 1.55,-9.42 0,-0.78 0,-1.29 0,-1.55l109.18 -455.68c0.77,-2.84 1.16,-4.64 1.29,-5.67 0.13,-1.04 0.13,-2.07 0.13,-3.1 0,-6.46 -2.2,-11.75 -6.72,-15.75 -4.64,-4.13 -10.97,-6.58 -19.35,-7.61l3.09 -14.71zm760.63 -18.59l13.94 0c-0.78,3.23 -1.81,8.13 -2.97,14.33 -11.87,57.56 -30.07,86.34 -54.46,86.34l-82.86 0 -97.56 399.02c-0.77,2.46 -1.29,4.91 -1.68,7.36 -0.38,2.32 -0.51,4.65 -0.51,6.97 0,7.74 2.45,13.94 7.48,18.46 5.04,4.64 12.26,7.22 21.56,8l-2.97 14.71 -100.66 0c-13.81,0 -24.13,-2.32 -30.71,-6.97 -6.71,-4.65 -10.07,-11.87 -10.07,-21.68 0,-3.61 0.13,-6.32 0.39,-8.13 0.26,-1.94 0.64,-3.62 1.16,-5.16l98.2 -412.58 -77.43 0c-10.33,0 -18.07,1.67 -23.1,4.9 -5.04,3.36 -8.39,8.91 -10.07,16.78l-14.71 0c1.03,-4 2.32,-9.68 3.74,-17.04 12.91,-57.82 34.46,-86.72 64.92,-86.72l264.3 0c10.84,0 18.71,-1.42 23.62,-4.13 4.9,-2.84 8.38,-7.62 10.45,-14.46zm31.75 18.59l117.56 0c9.42,0 16.13,1.42 20.26,4.25 4.13,2.71 6.19,7.36 6.19,13.68 0,1.55 -0.25,3.49 -0.64,5.94 -0.52,2.45 -1.03,4.78 -1.55,7.1l-84.79 348.44c-1.94,8.77 -3.36,15.61 -4.13,20.26 -0.78,4.65 -1.16,8.52 -1.16,11.49 0,16.13 6.06,28 18.19,35.74 12.14,7.62 30.85,11.49 56.4,11.49 28.4,0 49.43,-6.07 63.11,-18.33 13.55,-12.26 24.78,-36 33.69,-71.24l78.21 -317.85c0.51,-1.8 0.9,-3.74 1.16,-5.8 0.26,-2.2 0.38,-5.04 0.38,-8.52 0,-6.33 -2.06,-11.36 -6.45,-14.97 -4.26,-3.62 -10.45,-5.94 -18.45,-6.97l2.97 -14.71 108.52 0c12.65,0 21.3,1.54 26.07,4.77 4.78,3.23 7.23,8.65 7.23,16.26 0,3.23 -0.13,5.94 -0.39,8 -0.26,2.07 -0.64,4 -1.16,6.07l-90.72 366.25c-12.64,51.36 -35.62,88.01 -69.04,109.69 -33.43,21.68 -84.15,32.52 -152.15,32.52 -61.31,0 -105.82,-9.03 -133.57,-27.23 -27.75,-18.2 -41.55,-46.98 -41.55,-86.6 0,-7.36 0.38,-14.58 1.29,-21.81 0.9,-7.23 2.19,-14.33 4,-21.3l80.53 -333.72c0.77,-2.84 1.29,-5.29 1.68,-7.62 0.38,-2.19 0.64,-4.38 0.64,-6.45 0,-6.45 -2.19,-11.87 -6.58,-16.26 -4.52,-4.26 -10.71,-6.84 -18.84,-7.87l3.1 -14.71zm626.53 77.43l-41.95 168.8 37.43 0c26.33,0 45.82,-1.81 58.72,-5.29 12.78,-3.49 22.85,-9.42 30.2,-17.81 9.55,-11.36 17.43,-25.94 23.49,-43.75 6.07,-17.68 9.04,-35.24 9.04,-52.4 0,-17.94 -3.75,-30.59 -11.1,-38.2 -7.49,-7.62 -19.75,-11.36 -36.91,-11.36l-68.92 0zm-131.5 -77.43l253.33 0c36.52,0 63.63,8.9 81.05,26.71 17.55,17.68 26.33,45.3 26.33,82.6 0,32 -5.04,63.37 -14.97,94.07 -9.94,30.85 -22.72,54.85 -38.33,72.27 -15.88,17.69 -35.24,30.2 -58.21,37.69 -22.97,7.36 -59.24,11.1 -108.92,11.1l-69.94 0 -38.59 163.38c0,0.25 -0.13,0.9 -0.39,1.93 -0.77,3.49 -1.16,6.33 -1.16,8.26 0,7.62 2.58,13.42 7.61,17.68 5.04,4.13 12.26,6.2 21.94,6.2l-3.48 14.71 -117.44 0c-8.64,0 -15.35,-2.32 -20.39,-6.84 -5.03,-4.52 -7.61,-10.84 -7.61,-18.84 0,-0.78 0.13,-1.94 0.39,-3.62 0.25,-1.67 0.64,-4 1.16,-6.97l109.95 -453.73c0.12,-0.91 0.38,-2.07 0.51,-3.36 0.13,-1.29 0.13,-2.97 0.13,-5.29 0,-6.45 -2.19,-11.75 -6.71,-15.75 -4.65,-4 -10.97,-6.45 -19.36,-7.48l3.1 -14.71zm812.76 77.43l-41.95 168.8 37.43 0c26.33,0 45.82,-1.81 58.72,-5.29 12.78,-3.49 22.85,-9.42 30.2,-17.81 9.55,-11.36 17.43,-25.94 23.49,-43.75 6.07,-17.68 9.04,-35.24 9.04,-52.4 0,-17.94 -3.75,-30.59 -11.1,-38.2 -7.49,-7.62 -19.75,-11.36 -36.91,-11.36l-68.92 0zm-131.5 -77.43l253.33 0c36.52,0 63.63,8.9 81.05,26.71 17.55,17.68 26.33,45.3 26.33,82.6 0,32 -5.04,63.37 -14.97,94.07 -9.94,30.85 -22.72,54.85 -38.33,72.27 -15.88,17.69 -35.24,30.2 -58.21,37.69 -22.97,7.36 -59.24,11.1 -108.92,11.1l-69.94 0 -38.59 163.38c0,0.25 -0.13,0.9 -0.39,1.93 -0.77,3.49 -1.16,6.33 -1.16,8.26 0,7.62 2.58,13.42 7.61,17.68 5.04,4.13 12.26,6.2 21.94,6.2l-3.48 14.71 -117.44 0c-8.64,0 -15.35,-2.32 -20.39,-6.84 -5.03,-4.52 -7.61,-10.84 -7.61,-18.84 0,-0.78 0.13,-1.94 0.39,-3.62 0.25,-1.67 0.64,-4 1.16,-6.97l109.95 -453.73c0.12,-0.91 0.38,-2.07 0.51,-3.36 0.13,-1.29 0.13,-2.97 0.13,-5.29 0,-6.45 -2.19,-11.75 -6.71,-15.75 -4.65,-4 -10.97,-6.45 -19.36,-7.48l3.1 -14.71zm572.09 76.66l-35.62 149.44 67.37 0c28.52,0 50.2,-9.43 65.04,-28.14 14.84,-18.71 22.33,-45.94 22.33,-81.69 0,-13.55 -4.13,-23.62 -12.52,-29.94 -8.26,-6.46 -21.42,-9.68 -39.36,-9.68l-67.24 0zm-130.86 -76.66l253.33 0c36.27,0 64.02,9.16 83.25,27.36 19.23,18.32 28.78,44.78 28.78,79.24 0,53.69 -13.94,98.07 -41.69,133.3 -27.75,35.11 -63.24,52.66 -106.2,52.66l-1.55 0 47.23 136.28c3.36,8.51 7.62,14.84 12.91,18.84 5.29,4.13 12,6.06 20.26,6.06 2.84,0 5.68,-0.12 8.78,-0.51 2.97,-0.39 6.19,-1.03 9.81,-1.68 -5.3,31.23 -9.43,51.49 -12.14,60.66 -2.84,9.16 -5.93,15.36 -9.42,18.32 -2.58,2.07 -8.13,3.49 -16.78,4.52 -8.77,1.03 -21.42,1.55 -37.94,1.55 -24.26,0 -40.14,-2.32 -47.62,-6.84 -7.62,-4.52 -13.16,-12.78 -16.65,-24.91l-59.75 -200.55 -39.37 0 -44.26 184.29c-0.26,1.03 -0.39,2.19 -0.52,3.36 -0.13,1.29 -0.26,3.35 -0.26,6.06 0,7.36 2.45,13.04 7.23,17.04 4.77,4 11.87,6.32 21.17,6.84l-3.75 14.71 -116.79 0c-8.51,0 -15.22,-2.06 -20,-6.07 -4.77,-4 -7.23,-9.68 -7.23,-17.03 0,-2.2 0.52,-5.42 1.55,-9.42 0,-0.78 0,-1.29 0,-1.55l109.18 -455.68c0.77,-2.84 1.16,-4.64 1.29,-5.67 0.13,-1.04 0.13,-2.07 0.13,-3.1 0,-6.46 -2.2,-11.75 -6.72,-15.75 -4.64,-4.13 -10.97,-6.58 -19.35,-7.61l3.09 -14.71zm453.61 0l119.11 0c8,0 14.2,1.54 18.45,4.64 4.26,2.97 6.46,7.49 6.46,13.29 0,1.04 -0.13,2.33 -0.39,3.75 -0.26,1.29 -0.65,3.22 -1.16,5.55l-113.05 460.19c-0.13,1.29 -0.38,2.58 -0.51,3.87 -0.13,1.29 -0.13,3.23 -0.13,6.07 0,7.48 2.45,13.42 7.35,17.55 4.91,4.13 12.14,6.45 21.69,6.97l-2.97 14.71 -117.44 0c-8.64,0 -15.22,-2.06 -20,-6.07 -4.77,-4 -7.23,-9.68 -7.23,-17.03 0,-2.2 0.52,-5.29 1.55,-9.42 0,-0.78 0,-1.16 0,-1.42l109.82 -455.81c0.78,-2.84 1.16,-4.64 1.29,-5.67 0.13,-1.04 0.26,-2.07 0.26,-2.97 0,-6.07 -2.45,-11.23 -7.23,-15.36 -4.77,-4.13 -11.35,-6.84 -19.61,-8.13l3.74 -14.71zm163.89 0l95.36 0c15.62,0 26.46,2.58 32.4,7.74 5.94,5.16 9.29,14.97 9.94,29.3l22.71 365.73 155.12 -353.6c0.26,-1.04 0.77,-2.46 1.55,-4.26 2.58,-5.81 3.74,-9.94 3.74,-12.39 0,-5.04 -1.68,-9.04 -5.29,-12 -3.49,-2.84 -8.65,-4.78 -15.49,-5.81l3.74 -14.71 90.46 0c12.14,0 20.65,1.42 25.69,4.38 5.03,2.84 7.61,7.62 7.61,14.07 0,2.84 -0.52,5.94 -1.55,9.55 -1.03,3.49 -2.97,8.52 -6.06,15.1l-231.52 493.49 -87.76 0c-12.91,0 -21.43,-2.45 -25.94,-7.23 -4.39,-4.77 -7.36,-14.71 -8.91,-29.81l-37.81 -439.81c-1.42,-16.65 -4.52,-28.01 -9.04,-34.07 -4.51,-6.07 -12.13,-9.81 -22.71,-11.36l3.74 -14.32zm604.48 110.07l-114.59 201.97 123.24 0 -8.65 -201.97zm-71.11 -110.07l133.83 0c14.06,0 24.13,2.83 30.07,8.64 5.93,5.81 9.42,16.13 10.32,31.11l25.43 439.42c0.77,11.74 3.74,21.42 9.03,28.65 5.29,7.36 12.65,12 21.94,14.07l-2.32 14.71 -94.46 0c-14.84,0 -25.94,-4 -33.3,-11.87 -7.36,-8 -11.49,-20.65 -12.52,-38.08l-5.29 -100.26 -160.28 0 -54.08 104.52c-1.29,2.2 -2.19,4.39 -2.84,6.59 -0.64,2.06 -1.03,4.38 -1.29,6.58 0,5.8 1.42,10.06 4.26,12.65 2.97,2.71 7.88,4.38 14.97,5.16l-1.8 14.71 -104.92 0c-7.1,0 -12.52,-1.68 -16.39,-4.9 -4,-3.36 -5.93,-7.88 -5.93,-13.68 0,-4.26 1.16,-9.43 3.35,-15.49 2.32,-6.07 6.07,-13.55 11.49,-22.72l238.23 -424.96c3.1,-5.55 5.29,-10.2 6.71,-14.07 1.29,-3.74 2.06,-6.97 2.06,-9.81 0,-5.29 -1.67,-9.29 -4.9,-12 -3.35,-2.84 -8.13,-4.26 -14.45,-4.26l3.09 -14.71zm624.09 -18.59l13.94 0c-0.78,3.23 -1.81,8.13 -2.97,14.33 -11.87,57.56 -30.07,86.34 -54.46,86.34l-82.86 0 -97.56 399.02c-0.77,2.46 -1.29,4.91 -1.68,7.36 -0.38,2.32 -0.51,4.65 -0.51,6.97 0,7.74 2.45,13.94 7.48,18.46 5.04,4.64 12.26,7.22 21.56,8l-2.97 14.71 -100.66 0c-13.81,0 -24.13,-2.32 -30.71,-6.97 -6.71,-4.65 -10.07,-11.87 -10.07,-21.68 0,-3.61 0.13,-6.32 0.39,-8.13 0.26,-1.94 0.64,-3.62 1.16,-5.16l98.2 -412.58 -77.43 0c-10.33,0 -18.07,1.67 -23.1,4.9 -5.04,3.36 -8.39,8.91 -10.07,16.78l-14.71 0c1.03,-4 2.32,-9.68 3.74,-17.04 12.91,-57.82 34.46,-86.72 64.92,-86.72l264.3 0c10.84,0 18.71,-1.42 23.62,-4.13 4.9,-2.84 8.38,-7.62 10.45,-14.46zm33.29 18.59l336.05 0c-6.84,38.84 -13.42,62.33 -19.62,70.59 -6.32,8.13 -17.03,12.26 -32.13,12.26l-157.18 0 -27.24 119.24 171.13 0c-5.3,33.69 -11.49,55.11 -18.46,64.01 -7.1,8.91 -20.78,13.43 -41.04,13.43l-131.63 0 -42.07 172.67 171.38 0c10.32,0 18.45,-2.2 24.52,-6.59 6.06,-4.38 10.97,-11.48 14.84,-21.29l13.94 0c-9.04,51.36 -17.55,82.98 -25.56,94.72 -7.87,11.74 -20.13,17.55 -36.52,17.55l-255.4 0c-11.09,0 -19.22,-1.94 -24.52,-5.68 -5.29,-3.74 -8,-9.55 -8,-17.42 0,-2.45 0.26,-5.42 0.91,-8.91 0.64,-3.35 1.67,-8.77 3.22,-16l104.92 -441.1c0.51,-2.07 0.9,-3.87 1.16,-5.55 0.26,-1.55 0.39,-2.84 0.39,-3.87 0,-6.84 -2.2,-12.13 -6.59,-16.01 -4.38,-3.87 -10.97,-6.32 -19.48,-7.35l2.96 -14.71zm646.55 0l119.11 0c8.13,0 14.07,1.42 18.2,4.38 4,2.97 6.06,7.23 6.06,12.78 0,1.81 -0.26,3.87 -0.64,6.19 -0.39,2.33 -0.91,4.52 -1.68,6.85l-102.46 421.22 149.69 0c12.14,0 21.17,-1.93 27.11,-5.68 5.93,-3.74 10.45,-10.32 13.81,-19.87l13.93 0 -13.29 68.66c-2.71,15.23 -8.26,25.94 -16.52,32.39 -8.39,6.45 -21.16,9.68 -38.2,9.68l-237.72 0c-8.38,0 -14.97,-2.19 -19.87,-6.58 -4.9,-4.52 -7.36,-10.2 -7.36,-17.3 0,-1.54 0.13,-3.35 0.52,-5.67 0.39,-2.2 1.16,-5.42 2.06,-9.43l108.79 -450.77c0.78,-2.84 1.16,-4.64 1.29,-5.67 0.13,-1.04 0.26,-2.07 0.26,-2.97 0,-6.07 -2.45,-11.23 -7.23,-15.36 -4.77,-4.13 -11.35,-6.84 -19.61,-8.13l3.74 -14.71zm366.38 0l119.11 0c8,0 14.2,1.54 18.45,4.64 4.26,2.97 6.46,7.49 6.46,13.29 0,1.04 -0.13,2.33 -0.39,3.75 -0.26,1.29 -0.65,3.22 -1.16,5.55l-113.05 460.19c-0.13,1.29 -0.38,2.58 -0.51,3.87 -0.13,1.29 -0.13,3.23 -0.13,6.07 0,7.48 2.45,13.42 7.35,17.55 4.91,4.13 12.14,6.45 21.69,6.97l-2.97 14.71 -117.44 0c-8.64,0 -15.22,-2.06 -20,-6.07 -4.77,-4 -7.23,-9.68 -7.23,-17.03 0,-2.2 0.52,-5.29 1.55,-9.42 0,-0.78 0,-1.16 0,-1.42l109.82 -455.81c0.78,-2.84 1.16,-4.64 1.29,-5.67 0.13,-1.04 0.26,-2.07 0.26,-2.97 0,-6.07 -2.45,-11.23 -7.23,-15.36 -4.77,-4.13 -11.35,-6.84 -19.61,-8.13l3.74 -14.71z"/>
     <path class="fil2" d="M16482.14 4360.09l127.89 0c12.78,0 22.07,3.22 27.88,9.55 5.8,6.32 8.9,16.9 9.16,31.62l9.42 324.94 132.28 -311.01c1.54,-3.48 2.71,-6.71 3.48,-9.81 0.65,-2.96 1.03,-5.93 1.03,-8.64 0,-6.58 -1.8,-11.62 -5.68,-15.1 -3.74,-3.62 -9.55,-5.81 -17.29,-6.84l3.74 -14.71 126.99 0c13.81,0 23.1,2.45 27.74,7.48 4.65,4.91 6.97,15.1 6.97,30.72l4.13 423.16c0,17.94 2.71,31.75 8,41.68 5.3,9.81 13.69,16.01 25.3,18.85l-4.13 14.71 -97.56 0c-14.32,0 -24.39,-3.1 -30.33,-9.29 -5.93,-6.2 -8.9,-16.78 -8.9,-31.88l1.55 -348.82 -158.09 389.99 -76.66 0c-10.84,0 -18.07,-1.68 -21.42,-5.16 -3.36,-3.36 -5.17,-9.55 -5.42,-18.59l-17.04 -363.92 -106.98 327.27c0,0.26 -0.13,0.65 -0.39,1.42 -2.84,9.42 -4.13,16.65 -4.13,21.94 0,6.07 2.33,11.1 7.1,15.1 4.78,4.13 11.1,6.45 18.97,7.23l-3.87 14.71 -98.2 0c-9.29,0 -16.65,-2.19 -22.07,-6.45 -5.42,-4.26 -8.13,-10.07 -8.13,-17.3 0,-2.84 0.39,-5.93 1.29,-9.55 0.9,-3.48 2.19,-7.48 4,-12l158.73 -431.94c1.42,-4.64 2.58,-8.13 3.23,-10.84 0.64,-2.58 0.9,-4.77 0.9,-6.58 0,-7.36 -2.32,-13.29 -6.97,-17.81 -4.64,-4.52 -11.48,-7.49 -20.26,-9.03l3.74 -15.1zm608.74 0l119.11 0c8,0 14.2,1.54 18.45,4.64 4.26,2.97 6.46,7.49 6.46,13.29 0,1.04 -0.13,2.33 -0.39,3.75 -0.26,1.29 -0.65,3.22 -1.16,5.55l-113.05 460.19c-0.13,1.29 -0.38,2.58 -0.51,3.87 -0.13,1.29 -0.13,3.23 -0.13,6.07 0,7.48 2.45,13.42 7.35,17.55 4.91,4.13 12.14,6.45 21.69,6.97l-2.97 14.71 -117.44 0c-8.64,0 -15.22,-2.06 -20,-6.07 -4.77,-4 -7.23,-9.68 -7.23,-17.03 0,-2.2 0.52,-5.29 1.55,-9.42 0,-0.78 0,-1.16 0,-1.42l109.82 -455.81c0.78,-2.84 1.16,-4.64 1.29,-5.67 0.13,-1.04 0.26,-2.07 0.26,-2.97 0,-6.07 -2.45,-11.23 -7.23,-15.36 -4.77,-4.13 -11.35,-6.84 -19.61,-8.13l3.74 -14.71zm534.14 -18.59l13.94 0c-0.78,3.23 -1.81,8.13 -2.97,14.33 -11.87,57.56 -30.07,86.34 -54.46,86.34l-82.86 0 -97.56 399.02c-0.77,2.46 -1.29,4.91 -1.68,7.36 -0.38,2.32 -0.51,4.65 -0.51,6.97 0,7.74 2.45,13.94 7.48,18.46 5.04,4.64 12.26,7.22 21.56,8l-2.97 14.71 -100.66 0c-13.81,0 -24.13,-2.32 -30.71,-6.97 -6.71,-4.65 -10.07,-11.87 -10.07,-21.68 0,-3.61 0.13,-6.32 0.39,-8.13 0.26,-1.94 0.64,-3.62 1.16,-5.16l98.2 -412.58 -77.43 0c-10.33,0 -18.07,1.67 -23.1,4.9 -5.04,3.36 -8.39,8.91 -10.07,16.78l-14.71 0c1.03,-4 2.32,-9.68 3.74,-17.04 12.91,-57.82 34.46,-86.72 64.92,-86.72l264.3 0c10.84,0 18.71,-1.42 23.62,-4.13 4.9,-2.84 8.38,-7.62 10.45,-14.46zm33.29 18.59l336.05 0c-6.84,38.84 -13.42,62.33 -19.62,70.59 -6.32,8.13 -17.03,12.26 -32.13,12.26l-157.18 0 -27.24 119.24 171.13 0c-5.3,33.69 -11.49,55.11 -18.46,64.01 -7.1,8.91 -20.78,13.43 -41.04,13.43l-131.63 0 -42.07 172.67 171.38 0c10.32,0 18.45,-2.2 24.52,-6.59 6.06,-4.38 10.97,-11.48 14.84,-21.29l13.94 0c-9.04,51.36 -17.55,82.98 -25.56,94.72 -7.87,11.74 -20.13,17.55 -36.52,17.55l-255.4 0c-11.09,0 -19.22,-1.94 -24.52,-5.68 -5.29,-3.74 -8,-9.55 -8,-17.42 0,-2.45 0.26,-5.42 0.91,-8.91 0.64,-3.35 1.67,-8.77 3.22,-16l104.92 -441.1c0.51,-2.07 0.9,-3.87 1.16,-5.55 0.26,-1.55 0.39,-2.84 0.39,-3.87 0,-6.84 -2.2,-12.13 -6.59,-16.01 -4.38,-3.87 -10.97,-6.32 -19.48,-7.35l2.96 -14.71zm534.93 82.08l-89.95 367.79 108.53 0c14.33,0 26.46,-2.71 36.39,-8 9.94,-5.29 18.46,-13.42 25.56,-24.52 4.77,-8 9.55,-17.42 14.19,-28.13 4.65,-10.72 10.46,-25.95 17.56,-45.56 13.03,-39.62 23.36,-77.18 30.84,-112.66 7.36,-35.49 11.1,-64.53 11.1,-86.99 0,-20.9 -5.16,-36.39 -15.36,-46.59 -10.19,-10.19 -25.42,-15.35 -45.81,-15.35l-93.04 0zm-132.28 -82.08l268.29 0c47.24,0 82.08,10.45 104.53,31.23 22.46,20.78 33.68,52.91 33.68,96.52 0,24.01 -2.96,52.66 -9.03,85.96 -6.07,33.16 -14.97,70.2 -26.46,110.72 -9.93,34.33 -19.48,62.98 -28.78,85.82 -9.29,22.97 -18.97,42.2 -28.78,57.56 -15.61,24.65 -34.46,42.33 -56.27,52.92 -21.94,10.58 -51.49,15.87 -88.53,15.87l-208.94 0c-19.1,0 -31.49,-1.94 -37.16,-5.68 -5.68,-3.74 -8.52,-10.71 -8.52,-20.78 0,-2.06 0.51,-5.68 1.55,-10.71 0.9,-5.03 2.58,-12.26 4.77,-21.94l98.98 -412.45c1.42,-5.81 2.58,-10.84 3.35,-15.1 0.78,-4.39 1.17,-7.87 1.17,-10.58 0,-7.62 -2.2,-13.42 -6.59,-17.3 -4.51,-3.87 -11.48,-6.32 -21.03,-7.35l3.74 -14.71z"/>
    </g>
   </g>
  </g>
 </g>
</svg>
